<?xml version="1.0" standalone="no"?>
<!DOCTYPE svg PUBLIC "-//W3C//DTD SVG 20010904//EN"
 "http://www.w3.org/TR/2001/REC-SVG-20010904/DTD/svg10.dtd">
<svg version="1.0" xmlns="http://www.w3.org/2000/svg"
 width="1024.000000pt" height="1024.000000pt" viewBox="0 0 1024.000000 1024.000000"
 preserveAspectRatio="xMidYMid meet">

<g transform="translate(0.000000,1024.000000) scale(0.100000,-0.100000)"
fill="#000000" stroke="none">
<path d="M8981 8196 c-53 -18 -127 -68 -161 -109 -34 -42 -59 -122 -60 -188
-1 -184 129 -315 310 -313 163 1 272 100 305 276 11 59 -12 143 -59 211 -35
52 -53 67 -109 95 -79 40 -159 49 -226 28z m163 -80 c52 -22 113 -83 132 -132
23 -60 14 -168 -18 -227 -46 -83 -186 -122 -283 -78 -81 36 -125 113 -125 216
0 100 41 174 119 215 43 23 128 26 175 6z"/>
<path d="M8945 7903 c4 -87 11 -162 15 -166 4 -5 20 -7 36 -5 27 3 29 6 32 56
4 71 26 70 78 -5 33 -49 44 -58 69 -58 41 0 43 22 5 83 l-30 50 30 30 c42 42
42 101 1 143 -29 28 -32 29 -136 29 l-107 0 7 -157z m152 91 c25 -7 34 -24 26
-53 -4 -17 -13 -21 -49 -21 -38 0 -44 3 -50 25 -12 49 12 65 73 49z"/>
<path d="M1885 8053 c-7 -5 -10 -479 -10 -1385 l0 -1378 180 0 c99 0 567 -2
1040 -4 508 -3 875 -1 896 5 67 17 74 34 74 183 0 116 -3 136 -22 172 -12 23
-30 45 -39 48 -47 18 -312 23 -976 19 l-728 -5 0 949 0 950 463 13 c254 7 518
10 587 7 69 -3 252 -11 408 -18 328 -14 304 -21 346 95 48 130 35 220 -41 302
-24 26 -39 32 -89 37 -32 3 -480 6 -994 6 -514 1 -969 4 -1010 7 -41 2 -79 1
-85 -3z"/>
<path d="M4665 8046 c-16 -7 -48 -33 -71 -57 -78 -84 -74 -60 -74 -390 0 -163
3 -337 6 -387 l7 -92 204 0 204 0 -3 398 -3 398 -28 42 c-55 84 -166 124 -242
88z"/>
<path d="M5442 8050 c-41 -17 -91 -61 -122 -108 l-30 -45 0 -389 0 -388 215 0
215 0 0 375 c0 406 0 408 -56 474 -64 76 -153 108 -222 81z"/>
<path d="M6268 8021 c-26 -17 -61 -49 -78 -72 -25 -34 -30 -52 -30 -96 0 -62
15 -95 62 -139 68 -65 34 -62 688 -56 327 2 733 1 903 -3 l307 -7 0 -378 0
-377 -31 -7 c-17 -3 -423 -6 -902 -6 l-870 0 -44 -26 c-51 -30 -100 -92 -109
-139 -11 -58 42 -153 114 -205 52 -38 78 -42 237 -31 77 6 498 10 935 10 437
0 812 0 834 0 82 1 180 75 225 170 l26 56 6 540 c4 320 3 558 -2 584 -18 85
-54 127 -153 179 l-51 27 -1010 3 -1011 2 -46 -29z"/>
<path d="M6245 7427 c-71 -48 -88 -77 -93 -150 -3 -56 -1 -66 26 -103 17 -23
47 -54 66 -69 l36 -27 713 -3 712 -2 41 23 c88 49 135 136 115 212 -7 24 -30
57 -66 92 l-56 55 -723 3 -723 2 -48 -33z"/>
<path d="M4621 6890 c-96 -20 -170 -86 -191 -172 -23 -92 26 -175 128 -219 41
-18 79 -19 558 -19 488 0 517 1 552 19 46 24 107 87 121 124 27 70 7 150 -50
204 -68 65 -62 64 -593 68 -264 2 -501 -1 -525 -5z"/>
<path d="M2535 6753 c6 -107 23 -285 28 -289 1 -1 250 -3 554 -5 360 -3 555
-1 561 6 5 6 13 92 16 192 l7 182 -23 13 c-18 10 -146 14 -587 16 l-563 3 7
-118z"/>
<path d="M6280 6273 c-123 -82 -163 -194 -101 -280 16 -23 46 -54 67 -69 35
-27 43 -29 128 -28 50 1 463 5 919 9 l827 8 0 -102 0 -101 -857 -1 c-472 0
-879 -4 -906 -8 -33 -6 -64 -21 -104 -52 -83 -65 -98 -89 -98 -159 0 -49 5
-65 30 -102 17 -23 53 -58 80 -76 l49 -33 187 7 c103 4 549 7 991 8 l803 1 55
27 c80 39 135 90 167 156 l28 57 -1 276 c-1 322 -2 324 -98 401 -106 85 -2 78
-1133 78 -921 0 -1011 -1 -1033 -17z"/>
<path d="M4517 6015 c2 -137 3 -327 3 -421 l0 -172 33 -48 c17 -26 49 -61 70
-78 33 -27 47 -31 96 -31 48 1 66 6 111 35 29 18 66 52 81 73 l29 40 0 271 c0
149 -3 341 -6 426 l-7 155 -206 0 -206 0 2 -250z"/>
<path d="M5287 5865 c2 -248 7 -415 14 -439 14 -52 90 -131 145 -152 37 -14
51 -15 86 -5 65 18 134 73 163 130 l25 49 0 409 1 408 -218 0 -218 0 2 -400z"/>
<path d="M2655 4910 c-84 -12 -234 -59 -309 -97 -253 -127 -421 -331 -494
-602 -21 -81 -25 -118 -26 -236 -1 -228 42 -380 155 -555 237 -367 659 -521
1082 -394 102 30 188 70 265 122 70 48 242 227 242 252 0 11 -18 29 -46 45
-25 15 -80 58 -122 96 -78 71 -157 129 -176 129 -6 0 -22 -20 -35 -45 -32 -60
-115 -136 -187 -173 -85 -43 -155 -56 -272 -50 -84 4 -109 10 -163 35 -105 50
-184 115 -236 195 -64 98 -84 170 -84 290 0 175 54 310 166 417 212 204 570
192 772 -26 l61 -66 89 84 c48 46 115 108 147 137 l60 54 -19 34 c-30 56 -183
195 -274 248 -108 63 -204 93 -338 106 -120 11 -183 11 -258 0z"/>
<path d="M4689 4911 c-227 -42 -415 -138 -556 -282 -89 -92 -128 -147 -178
-251 -73 -153 -90 -234 -90 -428 0 -140 4 -178 23 -250 70 -261 262 -496 500
-611 156 -76 265 -101 442 -102 178 -1 276 21 427 92 123 59 175 94 263 177
293 277 368 722 185 1100 -136 281 -384 477 -680 539 -94 19 -271 28 -336 16z
m271 -443 c161 -38 323 -188 377 -349 26 -78 26 -282 -1 -359 -108 -312 -458
-449 -764 -298 -176 87 -282 259 -282 459 0 113 13 176 57 269 45 93 150 203
235 244 106 52 251 65 378 34z"/>
<path d="M6469 4916 c-2 -2 -70 -6 -151 -8 l-147 -3 4 -415 c2 -228 4 -656 5
-950 l0 -535 213 -1 212 -1 -3 411 c-1 226 -1 485 0 576 l3 165 140 -210 c305
-458 436 -641 468 -651 12 -4 82 -8 155 -8 156 0 139 -11 254 159 41 61 119
173 173 250 54 77 147 213 206 302 l106 162 7 -61 c3 -34 6 -293 6 -577 l0
-516 183 0 c100 0 196 -3 212 -7 l30 -6 -2 961 -3 962 -112 0 c-62 0 -173 -4
-245 -9 l-132 -9 -44 -76 c-76 -132 -175 -290 -434 -691 -66 -102 -139 -218
-162 -257 -24 -40 -46 -73 -50 -73 -4 0 -15 15 -26 33 -10 17 -147 226 -304
462 -157 237 -308 474 -335 528 l-50 97 -86 0 c-48 0 -89 -2 -91 -4z"/>
<path d="M2884 2456 c-134 -43 -216 -169 -185 -282 33 -121 154 -194 327 -194
135 0 231 49 286 147 68 120 13 240 -142 312 -44 20 -73 26 -150 28 -60 2
-110 -2 -136 -11z m247 -140 c59 -28 76 -91 39 -151 -24 -38 -53 -53 -124 -61
-79 -9 -158 16 -185 60 -41 66 -24 117 54 160 39 21 165 17 216 -8z"/>
<path d="M5794 2451 c-2 -2 -4 -40 -4 -84 l0 -80 -235 6 -235 5 0 -69 c0 -67
-1 -69 -27 -75 -54 -11 -54 -12 -51 -61 l3 -48 175 -3 c235 -4 224 -8 218 79
l-5 70 76 -3 76 -3 3 -55 c4 -100 4 -100 72 -100 l60 0 0 64 c0 59 2 64 24 70
14 3 31 3 39 0 10 -4 16 6 20 36 8 62 0 78 -44 85 l-39 7 0 78 0 78 -61 4
c-33 1 -63 1 -65 -1z m-255 -257 c17 -4 31 -13 31 -20 0 -25 -39 -36 -100 -29
-58 7 -59 7 -48 31 12 26 49 31 117 18z"/>
<path d="M6275 2453 l-40 -4 3 -117 c2 -66 -1 -140 -8 -169 -13 -59 -87 -179
-144 -232 -40 -39 -46 -69 -17 -95 26 -23 80 -37 101 -26 24 13 116 148 147
216 l26 57 20 -54 c22 -59 77 -145 126 -197 27 -29 35 -33 63 -27 46 10 78 32
78 54 0 11 -17 41 -38 68 -94 120 -177 250 -189 297 -7 28 -13 89 -13 137 l0
87 -31 6 c-17 3 -34 5 -38 4 -3 -1 -24 -3 -46 -5z"/>
<path d="M6675 2448 c-3 -8 -4 -193 -3 -411 3 -340 5 -399 18 -408 19 -12 98
-5 113 10 9 9 12 120 12 406 0 216 -2 396 -5 398 -3 3 -33 8 -67 12 -50 5 -64
4 -68 -7z"/>
<path d="M8400 2377 l0 -83 -66 4 -66 4 8 -48 c12 -88 16 -92 68 -84 25 4 48
5 51 2 3 -3 5 -59 5 -124 0 -136 -1 -134 86 -123 l55 7 -3 81 c-1 45 -2 120
-1 167 1 47 0 129 -4 183 l-5 97 -64 0 -64 0 0 -83z"/>
<path d="M4370 2165 l0 -285 173 1 c94 1 224 4 287 8 l115 6 3 63 3 62 -220 0
-221 0 3 210 c2 167 -1 211 -11 215 -8 3 -40 5 -73 5 l-59 0 0 -285z"/>
<path d="M4969 2253 c-2 -109 -2 -251 -1 -315 l4 -117 35 -7 c19 -4 53 -1 75
5 38 12 40 14 34 43 -3 17 -6 156 -6 309 l0 279 -69 0 -69 0 -3 -197z"/>
<path d="M7130 2434 c-93 -40 -160 -126 -160 -205 0 -38 6 -56 33 -91 49 -64
116 -97 197 -98 161 0 245 70 283 238 14 63 14 63 -8 72 -12 5 -46 24 -76 43
-30 18 -69 39 -88 45 -47 16 -139 14 -181 -4z m183 -128 c59 -39 17 -136 -66
-151 -48 -9 -83 0 -113 30 -43 43 -28 94 41 134 27 16 105 8 138 -13z"/>
<path d="M7542 2225 l1 -224 42 -7 c76 -11 80 -8 83 74 3 78 2 76 72 84 23 3
25 7 25 53 l0 50 -47 3 -48 3 0 95 0 94 -65 0 -64 0 1 -225z"/>
<path d="M2001 2421 c-29 -10 -65 -30 -79 -45 -23 -22 -27 -36 -30 -99 -4 -68
-2 -75 30 -122 69 -104 149 -133 340 -122 115 6 173 29 216 85 26 34 27 40 27
158 0 77 -4 127 -11 134 -18 18 -130 30 -289 29 -120 0 -161 -3 -204 -18z
m397 -129 c19 -24 7 -81 -23 -111 -25 -25 -29 -26 -152 -25 l-126 0 -28 32
c-31 35 -39 91 -16 110 14 12 188 21 277 15 36 -3 60 -10 68 -21z"/>
<path d="M3530 2378 l0 -58 183 0 c101 0 252 3 335 7 l152 6 0 49 0 48 -67 1
c-38 0 -188 1 -336 2 l-267 2 0 -57z"/>
<path d="M5264 2393 c-12 -78 -14 -77 166 -69 88 4 166 9 174 12 16 6 25 44
19 78 l-5 25 -174 -2 -173 -2 -7 -42z"/>
<path d="M7876 2406 c-3 -16 -6 -44 -6 -63 l0 -35 193 7 c105 4 195 10 199 14
4 3 10 29 14 58 l6 52 -200 -2 -200 -2 -6 -29z"/>
<path d="M3520 2260 c0 -8 3 -32 6 -52 l7 -38 333 0 c319 0 334 1 344 19 5 11
10 35 10 53 l0 34 -350 -1 c-304 0 -350 -2 -350 -15z"/>
<path d="M7896 2243 c-3 -21 -6 -53 -6 -71 0 -25 -5 -35 -19 -39 -16 -4 -18
-11 -14 -41 3 -21 8 -40 12 -44 3 -4 107 -8 231 -10 l225 -3 3 34 c2 19 1 44
-2 57 -6 23 -9 24 -115 24 -155 0 -166 3 -186 56 -18 47 -54 74 -98 74 -20 0
-25 -6 -31 -37z"/>
<path d="M3480 2073 l0 -53 228 -1 c125 -1 286 0 357 1 146 1 155 5 155 72 l0
38 -370 -2 -370 -3 0 -52z"/>
<path d="M5439 2000 c-50 -5 -91 -16 -118 -31 -41 -23 -78 -65 -67 -77 3 -3
95 0 204 8 110 7 221 9 248 5 51 -7 84 -20 84 -33 0 -4 -99 -7 -220 -8 -212
-1 -221 -2 -267 -25 -43 -22 -48 -29 -51 -61 -4 -49 20 -92 70 -126 41 -27 42
-27 247 -30 286 -5 321 8 354 127 36 130 15 182 -93 233 -38 18 -67 22 -180
24 -74 1 -169 -1 -211 -6z m386 -229 c18 -7 18 -9 -6 -25 -23 -14 -52 -16
-225 -14 -169 3 -199 5 -199 18 0 13 28 16 170 20 94 3 186 6 205 7 19 1 44
-2 55 -6z"/>
<path d="M7188 1991 c-118 -39 -168 -90 -168 -171 0 -56 32 -107 93 -148 61
-42 111 -55 212 -56 154 -2 260 45 305 135 36 69 22 118 -49 182 -62 56 -101
68 -226 73 -89 3 -121 1 -167 -15z m278 -133 c36 -17 48 -39 40 -71 -9 -37
-60 -50 -185 -45 -98 3 -104 4 -127 31 -13 15 -24 35 -24 42 0 52 215 83 296
43z"/>
<path d="M2050 1980 l-205 -5 0 -64 0 -63 115 -2 c63 0 224 0 358 2 l242 2 0
70 0 70 -152 -2 c-84 -1 -245 -5 -358 -8z"/>
<path d="M3550 1940 l0 -50 278 0 c152 0 283 -4 290 -9 17 -10 -156 -21 -342
-21 -78 0 -158 -5 -178 -11 l-38 -10 0 -78 c0 -43 3 -91 6 -107 l5 -29 317 5
317 5 3 55 3 55 -256 -3 c-243 -3 -257 -2 -253 15 3 16 22 19 218 25 118 4
229 10 246 13 l31 5 0 95 0 95 -323 0 -324 0 0 -50z"/>
<path d="M7885 1970 c-4 -6 -3 -82 1 -170 l7 -160 323 0 324 0 0 70 0 70 -242
2 -243 3 0 75 c-1 131 7 120 -84 120 -44 0 -83 -5 -86 -10z"/>
<path d="M2800 1918 c-47 -24 -70 -43 -84 -69 -19 -36 -19 -36 3 -83 66 -136
311 -185 527 -105 48 18 95 58 106 89 9 26 -10 58 -43 75 -31 16 -31 16 -58
-15 -33 -40 -75 -49 -217 -50 -124 0 -174 12 -174 41 0 28 29 31 219 27 184
-3 191 -1 149 46 -35 38 -135 67 -258 73 -104 5 -106 5 -170 -29z"/>
<path d="M1963 1763 l-43 -4 0 -66 0 -66 38 7 c20 3 160 6 310 6 l273 0 -3 58
-3 57 -70 6 c-75 7 -432 8 -502 2z"/>
</g>
</svg>
